<mxfile host="app.diagrams.net" modified="2023-08-13T02:36:46.081Z" agent="Mozilla/5.0 (Windows NT 10.0; Win64; x64) AppleWebKit/537.36 (KHTML, like Gecko) Chrome/114.0.0.0 Safari/537.36 Edg/114.0.1823.82" etag="S1Gw7fvez2lpdmXW-t7s" version="21.6.8" type="device">
  <diagram name="第 1 页" id="Ha-VtkuZgDi8NN0ObizK">
    <mxGraphModel dx="1434" dy="835" grid="1" gridSize="10" guides="1" tooltips="1" connect="1" arrows="1" fold="1" page="1" pageScale="1" pageWidth="827" pageHeight="1169" math="0" shadow="0">
      <root>
        <mxCell id="0" />
        <mxCell id="1" parent="0" />
        <mxCell id="-v43fWclOVA6Y4llHxQn-8" style="edgeStyle=orthogonalEdgeStyle;rounded=0;orthogonalLoop=1;jettySize=auto;html=1;exitX=1;exitY=0.5;exitDx=0;exitDy=0;entryX=0;entryY=0.5;entryDx=0;entryDy=0;fontFamily=Helvetica;fontSize=18;fontColor=default;" parent="1" source="-v43fWclOVA6Y4llHxQn-1" target="-v43fWclOVA6Y4llHxQn-5" edge="1">
          <mxGeometry relative="1" as="geometry" />
        </mxCell>
        <mxCell id="-v43fWclOVA6Y4llHxQn-9" style="edgeStyle=orthogonalEdgeStyle;rounded=0;orthogonalLoop=1;jettySize=auto;html=1;exitX=0.5;exitY=1;exitDx=0;exitDy=0;entryX=0.5;entryY=0;entryDx=0;entryDy=0;fontFamily=Helvetica;fontSize=18;fontColor=default;" parent="1" source="-v43fWclOVA6Y4llHxQn-1" target="-v43fWclOVA6Y4llHxQn-4" edge="1">
          <mxGeometry relative="1" as="geometry" />
        </mxCell>
        <mxCell id="-v43fWclOVA6Y4llHxQn-10" style="rounded=0;orthogonalLoop=1;jettySize=auto;html=1;exitX=1;exitY=1;exitDx=0;exitDy=0;entryX=0.5;entryY=0;entryDx=0;entryDy=0;fontFamily=Helvetica;fontSize=18;fontColor=default;" parent="1" source="-v43fWclOVA6Y4llHxQn-1" target="-v43fWclOVA6Y4llHxQn-3" edge="1">
          <mxGeometry relative="1" as="geometry" />
        </mxCell>
        <mxCell id="-v43fWclOVA6Y4llHxQn-1" value="create函数" style="whiteSpace=wrap;html=1;fontSize=18;fillColor=#fff2cc;strokeColor=#d6b656;" parent="1" vertex="1">
          <mxGeometry x="40" y="40" width="120" height="60" as="geometry" />
        </mxCell>
        <mxCell id="-v43fWclOVA6Y4llHxQn-3" value="调用start函数" style="whiteSpace=wrap;html=1;strokeColor=default;fontFamily=Helvetica;fontSize=18;fontColor=default;fillColor=default;" parent="1" vertex="1">
          <mxGeometry x="130" y="180" width="120" height="60" as="geometry" />
        </mxCell>
        <mxCell id="-v43fWclOVA6Y4llHxQn-4" value="定义&lt;br&gt;类、&lt;br&gt;类原型方法、&lt;br&gt;随机函数、&lt;br&gt;列表类、&lt;br&gt;列表类原型方法" style="whiteSpace=wrap;html=1;strokeColor=#6c8ebf;fontFamily=Helvetica;fontSize=18;fillColor=#dae8fc;align=left;" parent="1" vertex="1">
          <mxGeometry x="30" y="260" width="140" height="160" as="geometry" />
        </mxCell>
        <mxCell id="-v43fWclOVA6Y4llHxQn-11" style="edgeStyle=orthogonalEdgeStyle;rounded=0;orthogonalLoop=1;jettySize=auto;html=1;exitX=1;exitY=0.5;exitDx=0;exitDy=0;entryX=0;entryY=0.5;entryDx=0;entryDy=0;fontFamily=Helvetica;fontSize=18;fontColor=default;" parent="1" source="-v43fWclOVA6Y4llHxQn-5" target="-v43fWclOVA6Y4llHxQn-6" edge="1">
          <mxGeometry relative="1" as="geometry" />
        </mxCell>
        <mxCell id="-v43fWclOVA6Y4llHxQn-12" style="rounded=0;orthogonalLoop=1;jettySize=auto;html=1;exitX=1;exitY=1;exitDx=0;exitDy=0;entryX=0;entryY=0;entryDx=0;entryDy=0;fontFamily=Helvetica;fontSize=18;fontColor=default;" parent="1" source="-v43fWclOVA6Y4llHxQn-5" target="-v43fWclOVA6Y4llHxQn-7" edge="1">
          <mxGeometry relative="1" as="geometry" />
        </mxCell>
        <mxCell id="-v43fWclOVA6Y4llHxQn-15" style="edgeStyle=orthogonalEdgeStyle;rounded=0;orthogonalLoop=1;jettySize=auto;html=1;exitX=0.5;exitY=1;exitDx=0;exitDy=0;entryX=0.5;entryY=0;entryDx=0;entryDy=0;fontFamily=Helvetica;fontSize=18;fontColor=default;" parent="1" source="-v43fWclOVA6Y4llHxQn-5" target="-v43fWclOVA6Y4llHxQn-14" edge="1">
          <mxGeometry relative="1" as="geometry" />
        </mxCell>
        <mxCell id="-v43fWclOVA6Y4llHxQn-5" value="定义start函数" style="whiteSpace=wrap;html=1;strokeColor=#d6b656;fontFamily=Helvetica;fontSize=18;fillColor=#fff2cc;" parent="1" vertex="1">
          <mxGeometry x="280" y="40" width="120" height="60" as="geometry" />
        </mxCell>
        <mxCell id="-v43fWclOVA6Y4llHxQn-6" value="创建列表实例" style="whiteSpace=wrap;html=1;strokeColor=default;fontFamily=Helvetica;fontSize=18;fontColor=default;fillColor=default;" parent="1" vertex="1">
          <mxGeometry x="480" y="40" width="120" height="60" as="geometry" />
        </mxCell>
        <mxCell id="-v43fWclOVA6Y4llHxQn-7" value="创建物体实例" style="whiteSpace=wrap;html=1;strokeColor=#6c8ebf;fontFamily=Helvetica;fontSize=18;fillColor=#dae8fc;" parent="1" vertex="1">
          <mxGeometry x="480" y="180" width="120" height="60" as="geometry" />
        </mxCell>
        <mxCell id="-v43fWclOVA6Y4llHxQn-13" value="fallingList" style="text;html=1;align=center;verticalAlign=middle;resizable=0;points=[];autosize=1;strokeColor=none;fillColor=none;fontSize=18;fontFamily=Helvetica;fontColor=default;" parent="1" vertex="1">
          <mxGeometry x="610" y="33" width="100" height="40" as="geometry" />
        </mxCell>
        <mxCell id="-v43fWclOVA6Y4llHxQn-16" style="rounded=0;orthogonalLoop=1;jettySize=auto;html=1;exitX=0.5;exitY=1;exitDx=0;exitDy=0;entryX=1;entryY=0.5;entryDx=0;entryDy=0;fontFamily=Helvetica;fontSize=18;fontColor=default;" parent="1" source="-v43fWclOVA6Y4llHxQn-14" target="-v43fWclOVA6Y4llHxQn-4" edge="1">
          <mxGeometry relative="1" as="geometry" />
        </mxCell>
        <mxCell id="-v43fWclOVA6Y4llHxQn-17" value="重复调用方法" style="edgeLabel;html=1;align=center;verticalAlign=middle;resizable=0;points=[];fontSize=18;fontFamily=Helvetica;fontColor=default;" parent="-v43fWclOVA6Y4llHxQn-16" vertex="1" connectable="0">
          <mxGeometry x="-0.0161" y="-1" relative="1" as="geometry">
            <mxPoint as="offset" />
          </mxGeometry>
        </mxCell>
        <mxCell id="-v43fWclOVA6Y4llHxQn-14" value="开始循环" style="whiteSpace=wrap;html=1;strokeColor=#6c8ebf;fontFamily=Helvetica;fontSize=18;fillColor=#dae8fc;" parent="1" vertex="1">
          <mxGeometry x="280" y="180" width="120" height="60" as="geometry" />
        </mxCell>
        <mxCell id="-v43fWclOVA6Y4llHxQn-20" value="petal&lt;br&gt;leaf&lt;br&gt;snow" style="text;html=1;align=center;verticalAlign=middle;resizable=0;points=[];autosize=1;strokeColor=none;fillColor=none;fontSize=18;fontFamily=Helvetica;fontColor=default;" parent="1" vertex="1">
          <mxGeometry x="610" y="180" width="70" height="80" as="geometry" />
        </mxCell>
        <mxCell id="-v43fWclOVA6Y4llHxQn-21" value="定义&lt;br&gt;雨滴类、&lt;br&gt;类原型方法、&lt;br&gt;水花类、&lt;br&gt;水花类原型方法" style="whiteSpace=wrap;html=1;strokeColor=#6c8ebf;fontFamily=Helvetica;fontSize=18;fillColor=#dae8fc;align=left;" parent="1" vertex="1">
          <mxGeometry x="20" y="545" width="140" height="155" as="geometry" />
        </mxCell>
        <mxCell id="-v43fWclOVA6Y4llHxQn-22" value="定义相关变量" style="whiteSpace=wrap;html=1;strokeColor=#6c8ebf;fontFamily=Helvetica;fontSize=18;fillColor=#dae8fc;" parent="1" vertex="1">
          <mxGeometry x="180" y="545" width="120" height="60" as="geometry" />
        </mxCell>
        <mxCell id="-v43fWclOVA6Y4llHxQn-23" style="edgeStyle=orthogonalEdgeStyle;rounded=0;orthogonalLoop=1;jettySize=auto;html=1;exitX=1;exitY=0.5;exitDx=0;exitDy=0;entryX=0;entryY=0.5;entryDx=0;entryDy=0;fontFamily=Helvetica;fontSize=18;fontColor=default;" parent="1" source="-v43fWclOVA6Y4llHxQn-24" target="-v43fWclOVA6Y4llHxQn-25" edge="1">
          <mxGeometry relative="1" as="geometry" />
        </mxCell>
        <mxCell id="-v43fWclOVA6Y4llHxQn-26" style="edgeStyle=orthogonalEdgeStyle;rounded=0;orthogonalLoop=1;jettySize=auto;html=1;exitX=0.5;exitY=1;exitDx=0;exitDy=0;entryX=0.5;entryY=0;entryDx=0;entryDy=0;fontFamily=Helvetica;fontSize=18;fontColor=default;" parent="1" source="-v43fWclOVA6Y4llHxQn-24" target="-v43fWclOVA6Y4llHxQn-21" edge="1">
          <mxGeometry relative="1" as="geometry" />
        </mxCell>
        <mxCell id="-v43fWclOVA6Y4llHxQn-27" style="rounded=0;orthogonalLoop=1;jettySize=auto;html=1;exitX=1;exitY=1;exitDx=0;exitDy=0;entryX=0.5;entryY=0;entryDx=0;entryDy=0;fontFamily=Helvetica;fontSize=18;fontColor=default;" parent="1" source="-v43fWclOVA6Y4llHxQn-24" target="-v43fWclOVA6Y4llHxQn-22" edge="1">
          <mxGeometry relative="1" as="geometry" />
        </mxCell>
        <mxCell id="-v43fWclOVA6Y4llHxQn-24" value="create函数" style="whiteSpace=wrap;html=1;fontSize=18;fillColor=#fff2cc;strokeColor=#d6b656;" parent="1" vertex="1">
          <mxGeometry x="30" y="450" width="120" height="60" as="geometry" />
        </mxCell>
        <mxCell id="-v43fWclOVA6Y4llHxQn-29" style="edgeStyle=orthogonalEdgeStyle;rounded=0;orthogonalLoop=1;jettySize=auto;html=1;entryX=0;entryY=0.5;entryDx=0;entryDy=0;fontFamily=Helvetica;fontSize=18;fontColor=default;" parent="1" source="-v43fWclOVA6Y4llHxQn-25" target="-v43fWclOVA6Y4llHxQn-28" edge="1">
          <mxGeometry relative="1" as="geometry" />
        </mxCell>
        <mxCell id="-v43fWclOVA6Y4llHxQn-25" value="定义start函数" style="whiteSpace=wrap;html=1;strokeColor=#d6b656;fontFamily=Helvetica;fontSize=18;fillColor=#fff2cc;" parent="1" vertex="1">
          <mxGeometry x="310" y="450" width="120" height="60" as="geometry" />
        </mxCell>
        <mxCell id="-v43fWclOVA6Y4llHxQn-28" value="定义updateRain函数" style="whiteSpace=wrap;html=1;strokeColor=#6c8ebf;fontFamily=Helvetica;fontSize=18;fillColor=#dae8fc;" parent="1" vertex="1">
          <mxGeometry x="500" y="450" width="190" height="60" as="geometry" />
        </mxCell>
        <mxCell id="-v43fWclOVA6Y4llHxQn-30" value="开始循环" style="whiteSpace=wrap;html=1;strokeColor=#6c8ebf;fontFamily=Helvetica;fontSize=18;fillColor=#dae8fc;" parent="1" vertex="1">
          <mxGeometry x="340" y="545" width="120" height="60" as="geometry" />
        </mxCell>
        <mxCell id="-v43fWclOVA6Y4llHxQn-32" style="rounded=0;orthogonalLoop=1;jettySize=auto;html=1;exitX=0.5;exitY=1;exitDx=0;exitDy=0;entryX=0.5;entryY=0;entryDx=0;entryDy=0;fontFamily=Helvetica;fontSize=18;fontColor=default;" parent="1" source="-v43fWclOVA6Y4llHxQn-28" target="-v43fWclOVA6Y4llHxQn-30" edge="1">
          <mxGeometry relative="1" as="geometry">
            <mxPoint x="560" y="545" as="sourcePoint" />
            <mxPoint x="650" y="580" as="targetPoint" />
          </mxGeometry>
        </mxCell>
        <mxCell id="-v43fWclOVA6Y4llHxQn-34" style="rounded=0;orthogonalLoop=1;jettySize=auto;html=1;exitX=0.5;exitY=1;exitDx=0;exitDy=0;entryX=1;entryY=0.5;entryDx=0;entryDy=0;fontFamily=Helvetica;fontSize=18;fontColor=default;" parent="1" source="-v43fWclOVA6Y4llHxQn-30" target="-v43fWclOVA6Y4llHxQn-21" edge="1">
          <mxGeometry relative="1" as="geometry">
            <mxPoint x="400" y="620" as="sourcePoint" />
            <mxPoint x="230" y="745" as="targetPoint" />
          </mxGeometry>
        </mxCell>
        <mxCell id="-v43fWclOVA6Y4llHxQn-35" value="重复调用方法" style="edgeLabel;html=1;align=center;verticalAlign=middle;resizable=0;points=[];fontSize=18;fontFamily=Helvetica;fontColor=default;" parent="-v43fWclOVA6Y4llHxQn-34" vertex="1" connectable="0">
          <mxGeometry x="-0.0161" y="-1" relative="1" as="geometry">
            <mxPoint as="offset" />
          </mxGeometry>
        </mxCell>
        <mxCell id="-v43fWclOVA6Y4llHxQn-36" style="rounded=0;orthogonalLoop=1;jettySize=auto;html=1;exitX=0.5;exitY=1;exitDx=0;exitDy=0;entryX=0.5;entryY=0;entryDx=0;entryDy=0;fontFamily=Helvetica;fontSize=18;fontColor=default;" parent="1" source="-v43fWclOVA6Y4llHxQn-28" target="-v43fWclOVA6Y4llHxQn-37" edge="1">
          <mxGeometry relative="1" as="geometry">
            <mxPoint x="540" y="550" as="sourcePoint" />
          </mxGeometry>
        </mxCell>
        <mxCell id="-v43fWclOVA6Y4llHxQn-37" value="创建物体实例" style="whiteSpace=wrap;html=1;strokeColor=#6c8ebf;fontFamily=Helvetica;fontSize=18;fillColor=#dae8fc;" parent="1" vertex="1">
          <mxGeometry x="535" y="545" width="120" height="60" as="geometry" />
        </mxCell>
        <mxCell id="-v43fWclOVA6Y4llHxQn-38" value="下雨" style="text;html=1;align=center;verticalAlign=middle;resizable=0;points=[];autosize=1;strokeColor=none;fillColor=none;fontSize=18;fontFamily=Helvetica;fontColor=default;" parent="1" vertex="1">
          <mxGeometry x="150" y="433" width="60" height="40" as="geometry" />
        </mxCell>
        <mxCell id="6_2D1eftYS68OU7fFk1C-2" value="&lt;div style=&quot;font-size: 14px;&quot;&gt;&lt;font style=&quot;font-size: 14px;&quot;&gt;globalSetting: {&lt;/font&gt;&lt;/div&gt;&lt;div style=&quot;font-size: 14px;&quot;&gt;&lt;font style=&quot;font-size: 14px;&quot;&gt;&amp;nbsp; &amp;nbsp; &amp;nbsp; &amp;nbsp;&amp;nbsp;&lt;font color=&quot;#4d9900&quot;&gt;open: true,&lt;/font&gt;&lt;/font&gt;&lt;/div&gt;&lt;div style=&quot;font-size: 14px;&quot;&gt;&lt;font color=&quot;#4d9900&quot; style=&quot;font-size: 14px;&quot;&gt;&amp;nbsp; &amp;nbsp; &amp;nbsp; &amp;nbsp; custom: true,&lt;/font&gt;&lt;/div&gt;&lt;div style=&quot;font-size: 14px;&quot;&gt;&lt;font color=&quot;#4d9900&quot; style=&quot;font-size: 14px;&quot;&gt;&amp;nbsp; &amp;nbsp; &amp;nbsp; &amp;nbsp; changeImg: true,&lt;/font&gt;&lt;/div&gt;&lt;div style=&quot;font-size: 14px;&quot;&gt;&lt;font color=&quot;#4d9900&quot; style=&quot;font-size: 14px;&quot;&gt;&amp;nbsp; &amp;nbsp; &amp;nbsp; &amp;nbsp; changeShow: true,&lt;/font&gt;&lt;/div&gt;&lt;div style=&quot;font-size: 14px;&quot;&gt;&lt;font color=&quot;#4d9900&quot; style=&quot;font-size: 14px;&quot;&gt;&amp;nbsp; &amp;nbsp; &amp;nbsp; &amp;nbsp; changeRain: true,&lt;/font&gt;&lt;/div&gt;&lt;div style=&quot;font-size: 14px;&quot;&gt;&lt;font color=&quot;#4d9900&quot; style=&quot;font-size: 14px;&quot;&gt;&amp;nbsp; &amp;nbsp; &amp;nbsp; &amp;nbsp; imgSetting: [&#39;petal&#39;],&lt;/font&gt;&lt;/div&gt;&lt;div style=&quot;font-size: 14px;&quot;&gt;&lt;font color=&quot;#4d9900&quot; style=&quot;font-size: 14px;&quot;&gt;&amp;nbsp; &amp;nbsp; &amp;nbsp; &amp;nbsp; imgNumSetting: [50, 50, 80, 80],&lt;/font&gt;&lt;/div&gt;&lt;div style=&quot;font-size: 14px;&quot;&gt;&lt;font color=&quot;#4d9900&quot; style=&quot;font-size: 14px;&quot;&gt;&amp;nbsp; &amp;nbsp; &amp;nbsp; &amp;nbsp; showSetting: {&lt;/font&gt;&lt;/div&gt;&lt;div style=&quot;font-size: 14px;&quot;&gt;&lt;font color=&quot;#4d9900&quot; style=&quot;font-size: 14px;&quot;&gt;&amp;nbsp; &amp;nbsp; &amp;nbsp; &amp;nbsp; &amp;nbsp; fadeIn: true,&lt;/font&gt;&lt;/div&gt;&lt;div style=&quot;font-size: 14px;&quot;&gt;&lt;font color=&quot;#4d9900&quot; style=&quot;font-size: 14px;&quot;&gt;&amp;nbsp; &amp;nbsp; &amp;nbsp; &amp;nbsp; &amp;nbsp; fadeOut: true,&lt;/font&gt;&lt;/div&gt;&lt;div style=&quot;font-size: 14px;&quot;&gt;&lt;font color=&quot;#4d9900&quot; style=&quot;font-size: 14px;&quot;&gt;&amp;nbsp; &amp;nbsp; &amp;nbsp; &amp;nbsp; &amp;nbsp; time: 20&lt;/font&gt;&lt;/div&gt;&lt;div style=&quot;font-size: 14px;&quot;&gt;&lt;font color=&quot;#4d9900&quot; style=&quot;font-size: 14px;&quot;&gt;&amp;nbsp; &amp;nbsp; &amp;nbsp; &amp;nbsp; },&lt;/font&gt;&lt;/div&gt;&lt;div style=&quot;font-size: 14px;&quot;&gt;&lt;font color=&quot;#4d9900&quot; style=&quot;font-size: 14px;&quot;&gt;&amp;nbsp; &amp;nbsp; &amp;nbsp; &amp;nbsp; rainSetting: {&lt;/font&gt;&lt;/div&gt;&lt;div style=&quot;font-size: 14px;&quot;&gt;&lt;font color=&quot;#4d9900&quot; style=&quot;font-size: 14px;&quot;&gt;&amp;nbsp; &amp;nbsp; &amp;nbsp; &amp;nbsp; &amp;nbsp; wind_speed: 80,&lt;/font&gt;&lt;/div&gt;&lt;div style=&quot;font-size: 14px;&quot;&gt;&lt;font color=&quot;#4d9900&quot; style=&quot;font-size: 14px;&quot;&gt;&amp;nbsp; &amp;nbsp; &amp;nbsp; &amp;nbsp; &amp;nbsp; wind_speed_x: 5,&lt;/font&gt;&lt;/div&gt;&lt;div style=&quot;font-size: 14px;&quot;&gt;&lt;font color=&quot;#4d9900&quot; style=&quot;font-size: 14px;&quot;&gt;&amp;nbsp; &amp;nbsp; &amp;nbsp; &amp;nbsp; &amp;nbsp; wind_angle: 260,&lt;/font&gt;&lt;/div&gt;&lt;div style=&quot;font-size: 14px;&quot;&gt;&lt;font color=&quot;#4d9900&quot; style=&quot;font-size: 14px;&quot;&gt;&amp;nbsp; &amp;nbsp; &amp;nbsp; &amp;nbsp; &amp;nbsp; hasBounce: true,&lt;/font&gt;&lt;/div&gt;&lt;div style=&quot;font-size: 14px;&quot;&gt;&lt;font color=&quot;#4d9900&quot; style=&quot;font-size: 14px;&quot;&gt;&amp;nbsp; &amp;nbsp; &amp;nbsp; &amp;nbsp; &amp;nbsp; maxNum: 80,&lt;/font&gt;&lt;/div&gt;&lt;div style=&quot;font-size: 14px;&quot;&gt;&lt;font style=&quot;font-size: 14px;&quot;&gt;&amp;nbsp; &amp;nbsp; &amp;nbsp; &amp;nbsp; &amp;nbsp; &lt;font color=&quot;#cc0000&quot;&gt;numLevel: 1,&lt;/font&gt;&lt;/font&gt;&lt;/div&gt;&lt;div style=&quot;font-size: 14px;&quot;&gt;&lt;font color=&quot;#cc0000&quot; style=&quot;font-size: 14px;&quot;&gt;&amp;nbsp; &amp;nbsp; &amp;nbsp; &amp;nbsp; &amp;nbsp; gravity: 0.163&lt;/font&gt;&lt;/div&gt;&lt;div style=&quot;font-size: 14px;&quot;&gt;&lt;font color=&quot;#cc0000&quot; style=&quot;font-size: 14px;&quot;&gt;&amp;nbsp; &amp;nbsp; &amp;nbsp; &amp;nbsp; },&lt;/font&gt;&lt;/div&gt;&lt;div style=&quot;font-size: 14px;&quot;&gt;&lt;font color=&quot;#cc0000&quot; style=&quot;font-size: 14px;&quot;&gt;&amp;nbsp; &amp;nbsp; &amp;nbsp; &amp;nbsp; zIndex: 100,&lt;/font&gt;&lt;/div&gt;&lt;div style=&quot;font-size: 14px;&quot;&gt;&lt;font color=&quot;#cc0000&quot; style=&quot;font-size: 14px;&quot;&gt;&amp;nbsp; &amp;nbsp; &amp;nbsp; &amp;nbsp; size:[40,40,2.5]&lt;/font&gt;&lt;/div&gt;&lt;div style=&quot;font-size: 14px;&quot;&gt;&lt;font style=&quot;font-size: 14px;&quot;&gt;&amp;nbsp; &amp;nbsp; &amp;nbsp; },&lt;/font&gt;&lt;/div&gt;" style="whiteSpace=wrap;html=1;strokeColor=#6c8ebf;fontFamily=Helvetica;fontSize=14;fillColor=#dae8fc;align=left;" vertex="1" parent="1">
          <mxGeometry x="30" y="760" width="300" height="460" as="geometry" />
        </mxCell>
        <mxCell id="6_2D1eftYS68OU7fFk1C-5" value="" style="edgeStyle=orthogonalEdgeStyle;rounded=0;orthogonalLoop=1;jettySize=auto;html=1;fontSize=14;" edge="1" parent="1" source="6_2D1eftYS68OU7fFk1C-3" target="6_2D1eftYS68OU7fFk1C-4">
          <mxGeometry relative="1" as="geometry" />
        </mxCell>
        <mxCell id="6_2D1eftYS68OU7fFk1C-3" value="图案类型数量大小" style="whiteSpace=wrap;html=1;strokeColor=default;fontFamily=Helvetica;fontSize=14;fontColor=default;fillColor=default;" vertex="1" parent="1">
          <mxGeometry x="360" y="920" width="120" height="40" as="geometry" />
        </mxCell>
        <mxCell id="6_2D1eftYS68OU7fFk1C-7" value="" style="edgeStyle=orthogonalEdgeStyle;rounded=0;orthogonalLoop=1;jettySize=auto;html=1;fontSize=14;" edge="1" parent="1" source="6_2D1eftYS68OU7fFk1C-4" target="6_2D1eftYS68OU7fFk1C-6">
          <mxGeometry relative="1" as="geometry" />
        </mxCell>
        <mxCell id="6_2D1eftYS68OU7fFk1C-4" value="访客未开启设置" style="whiteSpace=wrap;html=1;strokeColor=default;fontFamily=Helvetica;fontSize=14;fontColor=default;fillColor=default;imageWidth=24;" vertex="1" parent="1">
          <mxGeometry x="360" y="1000" width="120" height="40" as="geometry" />
        </mxCell>
        <mxCell id="6_2D1eftYS68OU7fFk1C-9" value="" style="edgeStyle=orthogonalEdgeStyle;rounded=0;orthogonalLoop=1;jettySize=auto;html=1;fontSize=14;" edge="1" parent="1" source="6_2D1eftYS68OU7fFk1C-6" target="6_2D1eftYS68OU7fFk1C-8">
          <mxGeometry relative="1" as="geometry" />
        </mxCell>
        <mxCell id="6_2D1eftYS68OU7fFk1C-6" value="看主人，主人&lt;br&gt;未开启设置" style="whiteSpace=wrap;html=1;strokeColor=default;fontFamily=Helvetica;fontSize=14;fontColor=default;fillColor=default;" vertex="1" parent="1">
          <mxGeometry x="360" y="1080" width="120" height="40" as="geometry" />
        </mxCell>
        <mxCell id="6_2D1eftYS68OU7fFk1C-8" value="自动选择图案，其他依主人" style="whiteSpace=wrap;html=1;strokeColor=default;fontFamily=Helvetica;fontSize=14;fontColor=default;fillColor=default;" vertex="1" parent="1">
          <mxGeometry x="360" y="1160" width="120" height="40" as="geometry" />
        </mxCell>
        <mxCell id="6_2D1eftYS68OU7fFk1C-10" value="" style="edgeStyle=orthogonalEdgeStyle;rounded=0;orthogonalLoop=1;jettySize=auto;html=1;fontSize=14;exitX=1;exitY=0.5;exitDx=0;exitDy=0;entryX=0.5;entryY=0;entryDx=0;entryDy=0;" edge="1" target="6_2D1eftYS68OU7fFk1C-17" parent="1" source="6_2D1eftYS68OU7fFk1C-3">
          <mxGeometry relative="1" as="geometry">
            <mxPoint x="550" y="950" as="sourcePoint" />
            <mxPoint x="575" y="1025" as="targetPoint" />
            <Array as="points">
              <mxPoint x="576" y="940" />
            </Array>
          </mxGeometry>
        </mxCell>
        <mxCell id="6_2D1eftYS68OU7fFk1C-16" value="" style="edgeStyle=orthogonalEdgeStyle;rounded=0;orthogonalLoop=1;jettySize=auto;html=1;fontSize=14;" edge="1" source="6_2D1eftYS68OU7fFk1C-17" target="6_2D1eftYS68OU7fFk1C-19" parent="1">
          <mxGeometry relative="1" as="geometry" />
        </mxCell>
        <mxCell id="6_2D1eftYS68OU7fFk1C-17" value="访客开启设置" style="whiteSpace=wrap;html=1;strokeColor=default;fontFamily=Helvetica;fontSize=14;fontColor=default;fillColor=default;imageWidth=24;" vertex="1" parent="1">
          <mxGeometry x="520" y="1000" width="120" height="40" as="geometry" />
        </mxCell>
        <mxCell id="6_2D1eftYS68OU7fFk1C-18" value="" style="edgeStyle=orthogonalEdgeStyle;rounded=0;orthogonalLoop=1;jettySize=auto;html=1;fontSize=14;" edge="1" source="6_2D1eftYS68OU7fFk1C-19" target="6_2D1eftYS68OU7fFk1C-20" parent="1">
          <mxGeometry relative="1" as="geometry" />
        </mxCell>
        <mxCell id="6_2D1eftYS68OU7fFk1C-19" value="访客未选择任一个" style="whiteSpace=wrap;html=1;strokeColor=default;fontFamily=Helvetica;fontSize=14;fontColor=default;fillColor=default;" vertex="1" parent="1">
          <mxGeometry x="520" y="1080" width="120" height="40" as="geometry" />
        </mxCell>
        <mxCell id="6_2D1eftYS68OU7fFk1C-20" value="自动选择图案，其他依主人" style="whiteSpace=wrap;html=1;strokeColor=default;fontFamily=Helvetica;fontSize=14;fontColor=default;fillColor=default;" vertex="1" parent="1">
          <mxGeometry x="520" y="1160" width="120" height="40" as="geometry" />
        </mxCell>
        <mxCell id="6_2D1eftYS68OU7fFk1C-21" value="若都未指定图案，则访客无法更改数量，主人可以" style="whiteSpace=wrap;html=1;strokeColor=default;fontFamily=Helvetica;fontSize=14;fontColor=default;fillColor=default;imageWidth=24;" vertex="1" parent="1">
          <mxGeometry x="360" y="860" width="120" height="60" as="geometry" />
        </mxCell>
        <mxCell id="6_2D1eftYS68OU7fFk1C-22" value="" style="edgeStyle=orthogonalEdgeStyle;rounded=0;orthogonalLoop=1;jettySize=auto;html=1;fontSize=14;exitX=1;exitY=0.5;exitDx=0;exitDy=0;" edge="1" target="6_2D1eftYS68OU7fFk1C-24" parent="1" source="6_2D1eftYS68OU7fFk1C-17">
          <mxGeometry relative="1" as="geometry">
            <mxPoint x="740" y="1040" as="sourcePoint" />
          </mxGeometry>
        </mxCell>
        <mxCell id="6_2D1eftYS68OU7fFk1C-23" value="" style="edgeStyle=orthogonalEdgeStyle;rounded=0;orthogonalLoop=1;jettySize=auto;html=1;fontSize=14;" edge="1" source="6_2D1eftYS68OU7fFk1C-24" target="6_2D1eftYS68OU7fFk1C-25" parent="1">
          <mxGeometry relative="1" as="geometry" />
        </mxCell>
        <mxCell id="6_2D1eftYS68OU7fFk1C-24" value="访客有选择至少一个" style="whiteSpace=wrap;html=1;strokeColor=default;fontFamily=Helvetica;fontSize=14;fontColor=default;fillColor=default;" vertex="1" parent="1">
          <mxGeometry x="680" y="1080" width="120" height="40" as="geometry" />
        </mxCell>
        <mxCell id="6_2D1eftYS68OU7fFk1C-25" value="执行所有图案，选择的数量依访客，其他依主人" style="whiteSpace=wrap;html=1;strokeColor=default;fontFamily=Helvetica;fontSize=14;fontColor=default;fillColor=default;" vertex="1" parent="1">
          <mxGeometry x="680" y="1160" width="120" height="70" as="geometry" />
        </mxCell>
        <mxCell id="6_2D1eftYS68OU7fFk1C-27" value="都可更改" style="whiteSpace=wrap;html=1;strokeColor=#82b366;fontFamily=Helvetica;fontSize=18;fillColor=#d5e8d4;" vertex="1" parent="1">
          <mxGeometry x="30" y="1250" width="120" height="60" as="geometry" />
        </mxCell>
        <mxCell id="6_2D1eftYS68OU7fFk1C-28" value="只有主人可以" style="whiteSpace=wrap;html=1;strokeColor=#b85450;fontFamily=Helvetica;fontSize=18;fillColor=#f8cecc;" vertex="1" parent="1">
          <mxGeometry x="210" y="1250" width="120" height="60" as="geometry" />
        </mxCell>
        <mxCell id="6_2D1eftYS68OU7fFk1C-29" value="主人的自定义开关与子自定义开关&lt;br&gt;没有用" style="whiteSpace=wrap;html=1;strokeColor=#b85450;fontFamily=Helvetica;fontSize=14;fillColor=#f8cecc;imageWidth=24;" vertex="1" parent="1">
          <mxGeometry x="480" y="760" width="120" height="60" as="geometry" />
        </mxCell>
        <mxCell id="6_2D1eftYS68OU7fFk1C-30" value="自定义开关与子自定义开关平级" style="whiteSpace=wrap;html=1;strokeColor=default;fontFamily=Helvetica;fontSize=14;fontColor=default;fillColor=default;imageWidth=24;" vertex="1" parent="1">
          <mxGeometry x="360" y="760" width="120" height="60" as="geometry" />
        </mxCell>
        <mxCell id="6_2D1eftYS68OU7fFk1C-31" value="访客表，主人表，默认表，主人表始终覆盖默认表" style="whiteSpace=wrap;html=1;strokeColor=default;fontFamily=Helvetica;fontSize=14;fontColor=default;fillColor=default;imageWidth=24;" vertex="1" parent="1">
          <mxGeometry x="600" y="760" width="120" height="60" as="geometry" />
        </mxCell>
        <mxCell id="6_2D1eftYS68OU7fFk1C-32" value="初始化时访客表复制于主人表，且自定义开关置否" style="whiteSpace=wrap;html=1;strokeColor=default;fontFamily=Helvetica;fontSize=14;fontColor=default;fillColor=default;imageWidth=24;" vertex="1" parent="1">
          <mxGeometry x="600" y="820" width="120" height="60" as="geometry" />
        </mxCell>
      </root>
    </mxGraphModel>
  </diagram>
</mxfile>
